<svg version="1.1" id="Layer_1" xmlns="http://www.w3.org/2000/svg" xmlns:xlink="http://www.w3.org/1999/xlink" x="0px" y="0px"
	 width="100%" viewBox="0 0 225 225" enable-background="new 0 0 225 225" xml:space="preserve">
<path fill="#020202" opacity="1.000000" stroke="none" 
	d="
M126.000000,226.000000 
	C117.312439,226.000000 108.624870,226.000000 99.350388,225.630005 
	C96.985657,224.858963 95.214973,224.422501 93.428848,224.062683 
	C83.095665,221.981125 73.212502,218.829269 64.950417,211.920639 
	C60.736477,208.397003 57.318798,204.112595 57.422203,198.433914 
	C57.758099,179.987747 57.666866,161.481552 59.226913,143.124817 
	C60.746380,125.245644 70.162971,117.578117 88.214035,116.960670 
	C95.365341,116.716064 102.523361,116.663315 109.673958,116.403069 
	C121.300720,115.979904 132.971710,115.954697 144.535477,114.841614 
	C156.736725,113.667183 166.343430,107.877472 170.695175,95.702644 
	C172.244431,91.368355 173.343964,86.770134 173.886734,82.201859 
	C174.860992,74.001724 175.258835,65.733101 175.911911,57.307858 
	C182.671585,57.307858 189.157791,57.468189 195.632462,57.263500 
	C202.327393,57.051849 208.102127,59.387115 211.599487,64.790298 
	C215.685410,71.102783 219.086380,77.982285 221.855865,84.983162 
	C223.983047,90.360405 224.671646,96.306747 226.000000,102.000000 
	C226.000000,109.687576 226.000000,117.375153 225.632233,125.689224 
	C223.762497,136.879166 221.391068,147.205292 215.920898,156.505966 
	C210.891800,165.056747 204.125931,170.082886 193.304077,169.856064 
	C168.502045,169.336227 143.681671,169.691513 118.868752,169.691483 
	C117.095718,169.691483 115.322678,169.691498 113.514114,169.691498 
	C113.514114,171.911880 113.514114,173.491562 113.514114,175.663330 
	C132.288391,175.663330 150.828430,175.663330 169.690674,175.663330 
	C169.690674,182.723969 169.536270,189.199173 169.733322,195.663666 
	C169.937485,202.361893 167.565399,208.126755 162.166183,211.617661 
	C155.847946,215.702744 148.938812,219.030563 141.956604,221.879547 
	C136.916458,223.936127 131.338242,224.673996 126.000000,226.000000 
M154.029800,193.800232 
	C151.749847,189.091370 147.995407,186.809677 142.815186,187.628128 
	C136.766663,188.583786 132.972305,194.185440 134.128662,199.957855 
	C135.279480,205.702744 140.912689,209.229340 146.934494,207.974838 
	C152.698517,206.774048 155.754288,201.170502 154.029800,193.800232 
z"/>
<path fill="#020202" opacity="1.000000" stroke="none" 
	d="
M102.000000,1.000000 
	C109.020950,1.000000 116.041893,1.000000 123.694061,1.381439 
	C137.893143,3.042455 150.841446,6.121490 161.777618,14.880276 
	C166.072189,18.319782 169.633835,22.589861 169.541199,28.245678 
	C169.236023,46.875320 169.254425,65.562576 167.677460,84.102570 
	C166.409775,99.006493 159.257828,106.156059 146.418167,108.789124 
	C142.852936,109.520248 139.172256,109.912979 135.532059,110.014923 
	C119.881027,110.453255 104.222916,110.639702 88.571976,111.080704 
	C70.485481,111.590332 59.848885,118.759628 55.371719,133.504700 
	C54.222057,137.291016 53.465408,141.256866 53.055862,145.195099 
	C52.217319,153.258591 51.736439,161.359268 51.089031,169.692352 
	C44.376293,169.692352 37.890724,169.497116 31.422270,169.746185 
	C24.683989,170.005630 18.915442,167.603989 15.446081,162.219833 
	C11.286647,155.764725 7.979448,148.668320 5.055574,141.540985 
	C3.041824,136.632187 2.306627,131.198883 1.000000,126.000000 
	C1.000000,117.979103 1.000000,109.958199 1.367742,101.310768 
	C3.437527,89.312019 5.973444,78.220467 12.430609,68.419762 
	C17.346516,60.958385 23.783117,57.044613 33.181934,57.183285 
	C58.150505,57.551678 83.128098,57.308399 108.102104,57.308407 
	C109.877396,57.308407 111.652695,57.308407 113.498871,57.308407 
	C113.498871,55.103611 113.498871,53.525452 113.498871,51.364075 
	C94.736404,51.364075 76.195656,51.364075 57.309193,51.364075 
	C57.309193,44.317501 57.469929,37.844986 57.264778,31.384087 
	C57.052113,24.686520 59.404728,18.918301 64.796837,15.415033 
	C71.107544,11.314947 77.985664,7.894334 84.989967,5.118459 
	C90.360527,2.990051 96.308716,2.319137 102.000000,1.000000 
M77.078735,20.206997 
	C72.097404,24.445068 70.798912,28.859743 73.123512,33.654133 
	C75.155586,37.845196 79.721733,40.225346 84.158829,39.406395 
	C90.372162,38.259613 94.278931,32.450607 92.773491,26.597208 
	C91.123055,20.180054 85.144753,17.497681 77.078735,20.206997 
z"/>
<path fill="#FDFDFD" opacity="1.000000" stroke="none" 
	d="
M1.000000,126.468658 
	C2.306627,131.198883 3.041824,136.632187 5.055574,141.540985 
	C7.979448,148.668320 11.286647,155.764725 15.446081,162.219833 
	C18.915442,167.603989 24.683989,170.005630 31.422270,169.746185 
	C37.890724,169.497116 44.376293,169.692352 51.089031,169.692352 
	C51.736439,161.359268 52.217319,153.258591 53.055862,145.195099 
	C53.465408,141.256866 54.222057,137.291016 55.371719,133.504700 
	C59.848885,118.759628 70.485481,111.590332 88.571976,111.080704 
	C104.222916,110.639702 119.881027,110.453255 135.532059,110.014923 
	C139.172256,109.912979 142.852936,109.520248 146.418167,108.789124 
	C159.257828,106.156059 166.409775,99.006493 167.677460,84.102570 
	C169.254425,65.562576 169.236023,46.875320 169.541199,28.245678 
	C169.633835,22.589861 166.072189,18.319782 161.777618,14.880276 
	C150.841446,6.121490 137.893143,3.042455 124.162636,1.381439 
	C157.926575,1.000000 191.853149,1.000000 226.000000,1.000000 
	C226.000000,34.353905 226.000000,67.708290 226.000000,101.531342 
	C224.671646,96.306747 223.983047,90.360405 221.855865,84.983162 
	C219.086380,77.982285 215.685410,71.102783 211.599487,64.790298 
	C208.102127,59.387115 202.327393,57.051849 195.632462,57.263500 
	C189.157791,57.468189 182.671585,57.307858 175.911911,57.307858 
	C175.258835,65.733101 174.860992,74.001724 173.886734,82.201859 
	C173.343964,86.770134 172.244431,91.368355 170.695175,95.702644 
	C166.343430,107.877472 156.736725,113.667183 144.535477,114.841614 
	C132.971710,115.954697 121.300720,115.979904 109.673958,116.403069 
	C102.523361,116.663315 95.365341,116.716064 88.214035,116.960670 
	C70.162971,117.578117 60.746380,125.245644 59.226913,143.124817 
	C57.666866,161.481552 57.758099,179.987747 57.422203,198.433914 
	C57.318798,204.112595 60.736477,208.397003 64.950417,211.920639 
	C73.212502,218.829269 83.095665,221.981125 93.428848,224.062683 
	C95.214973,224.422501 96.985657,224.858963 98.881737,225.630005 
	C66.405663,226.000000 33.811325,226.000000 1.000000,226.000000 
	C1.000000,192.979416 1.000000,159.958374 1.000000,126.468658 
z"/>
<path fill="#FDFDFD" opacity="1.000000" stroke="none" 
	d="
M101.531342,1.000000 
	C96.308716,2.319137 90.360527,2.990051 84.989967,5.118459 
	C77.985664,7.894334 71.107544,11.314947 64.796837,15.415033 
	C59.404728,18.918301 57.052113,24.686520 57.264778,31.384087 
	C57.469929,37.844986 57.309193,44.317501 57.309193,51.364075 
	C76.195656,51.364075 94.736404,51.364075 113.498871,51.364075 
	C113.498871,53.525452 113.498871,55.103611 113.498871,57.308407 
	C111.652695,57.308407 109.877396,57.308407 108.102104,57.308407 
	C83.128098,57.308399 58.150505,57.551678 33.181934,57.183285 
	C23.783117,57.044613 17.346516,60.958385 12.430609,68.419762 
	C5.973444,78.220467 3.437527,89.312019 1.367742,100.842117 
	C1.000000,67.739365 1.000000,34.478733 1.000000,1.000000 
	C34.353912,1.000000 67.708298,1.000000 101.531342,1.000000 
z"/>
<path fill="#FDFDFD" opacity="1.000000" stroke="none" 
	d="
M126.468658,226.000000 
	C131.338242,224.673996 136.916458,223.936127 141.956604,221.879547 
	C148.938812,219.030563 155.847946,215.702744 162.166183,211.617661 
	C167.565399,208.126755 169.937485,202.361893 169.733322,195.663666 
	C169.536270,189.199173 169.690674,182.723969 169.690674,175.663330 
	C150.828430,175.663330 132.288391,175.663330 113.514114,175.663330 
	C113.514114,173.491562 113.514114,171.911880 113.514114,169.691498 
	C115.322678,169.691498 117.095718,169.691483 118.868752,169.691483 
	C143.681671,169.691513 168.502045,169.336227 193.304077,169.856064 
	C204.125931,170.082886 210.891800,165.056747 215.920898,156.505966 
	C221.391068,147.205292 223.762497,136.879166 225.632233,126.157852 
	C226.000000,159.260269 226.000000,192.520523 226.000000,226.000000 
	C192.979431,226.000000 159.958374,226.000000 126.468658,226.000000 
z"/>
<path fill="#F8F8F8" opacity="1.000000" stroke="none" 
	d="
M154.143890,194.172775 
	C155.754288,201.170502 152.698517,206.774048 146.934494,207.974838 
	C140.912689,209.229340 135.279480,205.702744 134.128662,199.957855 
	C132.972305,194.185440 136.766663,188.583786 142.815186,187.628128 
	C147.995407,186.809677 151.749847,189.091370 154.143890,194.172775 
z"/>
<path fill="#F9F9F9" opacity="1.000000" stroke="none" 
	d="
M77.446175,20.045971 
	C85.144753,17.497681 91.123055,20.180054 92.773491,26.597208 
	C94.278931,32.450607 90.372162,38.259613 84.158829,39.406395 
	C79.721733,40.225346 75.155586,37.845196 73.123512,33.654133 
	C70.798912,28.859743 72.097404,24.445068 77.446175,20.045971 
z"/>
</svg>